<svg width="107" height="32" viewBox="0 0 107 32" fill="none" xmlns="http://www.w3.org/2000/svg">
<g clip-path="url(#clip0_264_6891)">
<path d="M34.4024 23.3829C33.9806 20.7818 32.0972 18.8359 32.0972 18.8359C32.4843 19.2314 32.7017 19.7672 32.7017 20.326C32.7017 20.8847 32.4843 21.4207 32.0972 21.816L26.7725 27.2232C26.5803 27.4189 26.4278 27.6513 26.3237 27.9072C26.2196 28.1631 26.166 28.4373 26.166 28.7143C26.166 28.9914 26.2196 29.2657 26.3237 29.5216C26.4278 29.7774 26.5803 30.0098 26.7725 30.2054L27.5241 30.9766C27.912 31.3716 28.4378 31.5935 28.9859 31.5935C29.5339 31.5935 30.0597 31.3716 30.4476 30.9766L32.4665 28.9261C34.3324 27.0405 34.6755 25.0746 34.4024 23.3829Z" fill="#EAB657"/>
<path d="M47.6271 30.2641L46.8776 31.0309C46.4874 31.4234 45.9604 31.6421 45.4123 31.6388C44.8642 31.6354 44.3398 31.4104 43.9542 31.013L37.2246 24.0567L39.4358 21.7899C39.6277 21.5943 39.7799 21.362 39.8838 21.1064C39.9877 20.8507 40.0411 20.5767 40.0411 20.2999C40.0411 20.0231 39.9877 19.7491 39.8838 19.4935C39.7799 19.2378 39.6277 19.0055 39.4358 18.8099L37.2508 16.5811L42.073 11.7266C40.1874 13.61 39.8378 15.5736 40.1065 17.2653C40.502 19.8865 42.3832 21.8278 42.3832 21.8278L47.6599 27.2841C47.8497 27.4819 47.9993 27.7159 48.1004 27.9727C48.2015 28.2296 48.2519 28.5043 48.2489 28.7811C48.2458 29.0578 48.1894 29.3313 48.0827 29.5857C47.976 29.8402 47.8212 30.0707 47.6271 30.2641Z" fill="#71BBAC"/>
<path d="M40.0915 17.2722C40.5023 19.889 42.3836 21.8303 42.3836 21.8303C42.1929 21.6334 42.0422 21.4 41.94 21.1437C41.8379 20.8873 41.7861 20.6129 41.788 20.3361C41.7898 20.0594 41.8451 19.7857 41.9507 19.5308C42.0562 19.2759 42.21 19.0446 42.4032 18.8503L47.7497 13.4653C47.943 13.2711 48.0967 13.0398 48.2023 12.7849C48.3079 12.53 48.3632 12.2562 48.365 11.9794C48.3668 11.7028 48.3152 11.4283 48.213 11.172C48.1108 10.9156 47.9601 10.6823 47.7695 10.4853L47.0178 9.70967C46.8274 9.51258 46.6007 9.3557 46.3507 9.24801C46.1008 9.14032 45.8325 9.08394 45.5613 9.08208C45.2899 9.08021 45.021 9.13291 44.7696 9.23715C44.5183 9.3414 44.2896 9.49515 44.0965 9.68962L42.0668 11.7335C40.1767 13.6169 39.8272 15.5805 40.0915 17.2722Z" fill="#2B3B4C"/>
<path d="M39.4523 18.8515L37.2412 16.5869L30.4832 9.6596C30.0956 9.26475 29.5703 9.04297 29.0226 9.04297C28.4748 9.04297 27.9494 9.26475 27.5619 9.6596L26.8037 10.4286C26.4167 10.824 26.1992 11.3598 26.1992 11.9186C26.1992 12.4773 26.4167 13.0132 26.8037 13.4086L32.1044 18.8426C32.1044 18.8426 33.9878 20.7884 34.4096 23.3895C34.6826 25.0812 34.3396 27.0471 32.4606 28.9394L37.2674 24.0626L39.4523 21.8338C39.6443 21.6379 39.7967 21.4055 39.9005 21.1496C40.0044 20.8937 40.0579 20.6196 40.0579 20.3426C40.0579 20.0657 40.0044 19.7914 39.9005 19.5356C39.7967 19.2797 39.6443 19.0473 39.4523 18.8515Z" fill="#CE686B"/>
<path opacity="0.5" d="M39.4504 18.8505L37.2393 16.5859L35.0391 18.8617C34.6544 19.2593 34.4401 19.7966 34.4434 20.3553C34.4466 20.9141 34.6672 21.4487 35.0566 21.8416L37.2546 24.055L39.4396 21.826C39.8268 21.4323 40.0453 20.8983 40.0473 20.3406C40.0494 19.783 39.8348 19.2472 39.4504 18.8505Z" fill="#71BBAC"/>
<path d="M71.1936 9.03906V20.9256C71.1936 28.5194 67.1165 31.9987 61.4444 31.9987C55.7723 31.9987 51.6973 28.5194 51.6973 20.9256V9.03906H57.459V20.9256C57.459 24.5409 58.6104 26.2594 61.4465 26.2594C64.2825 26.2594 65.434 24.5409 65.434 20.9256V9.03906H71.1936Z" fill="black"/>
<path d="M74.5313 20.3345C74.5313 18.8061 74.8264 17.2925 75.3998 15.8804C75.9732 14.4683 76.8136 13.1852 77.8731 12.1043C78.9326 11.0236 80.1905 10.1662 81.5747 9.5813C82.959 8.99637 84.4427 8.69531 85.9411 8.69531C87.4394 8.69531 88.923 8.99637 90.3074 9.5813C91.6917 10.1662 92.9495 11.0236 94.0089 12.1043C95.0684 13.1852 95.9089 14.4683 96.4823 15.8804C97.0556 17.2925 97.3508 18.8061 97.3508 20.3345V31.6349H91.5891V29.25C90.9336 30.7433 88.4887 32.0071 85.9629 32.0071C84.4606 32.0075 82.9731 31.7056 81.5853 31.119C80.1975 30.5324 78.9367 29.6724 77.875 28.5883C76.8133 27.5042 75.9715 26.2172 75.3977 24.8009C74.824 23.3847 74.5296 21.867 74.5313 20.3345ZM91.635 20.3345C91.635 16.9912 89.2861 14.4146 86.0066 14.4146C82.727 14.4146 80.2908 16.9912 80.2908 20.3345C80.2908 23.6779 82.7291 26.2566 86.0066 26.2566C89.284 26.2566 91.635 23.6779 91.635 20.3345Z" fill="black"/>
<path d="M-0.00476682 20.3354C-0.0256848 18.7935 0.253955 17.2627 0.817908 15.832C1.38186 14.4014 2.21889 13.0992 3.28035 12.0013C4.34182 10.9035 5.60657 10.0316 7.00114 9.43661C8.3957 8.84158 9.89227 8.53516 11.4039 8.53516C12.9155 8.53516 14.4121 8.84158 15.8067 9.43661C17.2013 10.0316 18.466 10.9035 19.5274 12.0013C20.5889 13.0992 21.4259 14.4014 21.99 15.832C22.5539 17.2627 22.8335 18.7935 22.8126 20.3354V31.6359H17.0575V29.2509C16.402 30.7442 13.957 32.008 11.4312 32.008C9.92863 32.009 8.44062 31.7075 7.05232 31.1212C5.66403 30.5348 4.4027 29.6749 3.34051 28.5907C2.27832 27.5066 1.43613 26.2194 0.862107 24.8029C0.288086 23.3864 -0.00649055 21.8682 -0.00476682 20.3354ZM17.0967 20.3354C17.0967 16.9921 14.7502 14.4155 11.4706 14.4155C8.19095 14.4155 5.75911 16.9921 5.75911 20.3354C5.75911 23.6787 8.19532 26.2575 11.475 26.2575C14.7545 26.2575 17.1011 23.6787 17.1011 20.3354H17.0967Z" fill="black"/>
<path d="M100.904 31.6389V0H106.666V31.65L100.904 31.6389Z" fill="black"/>
</g>
<defs>
<clipPath id="clip0_264_6891">
<rect width="106.667" height="32" fill="white"/>
</clipPath>
</defs>
</svg>
